<mxfile host="app.diagrams.net" agent="Mozilla/5.0 (Windows NT 10.0; Win64; x64) AppleWebKit/537.36 (KHTML, like Gecko) Chrome/130.0.0.0 Safari/537.36" version="24.8.6">
  <diagram name="Page-1" id="jNC0EvJqq7e_pk2b44lq">
    <mxGraphModel grid="1" page="1" gridSize="10" guides="1" tooltips="1" connect="1" arrows="1" fold="1" pageScale="1" pageWidth="850" pageHeight="1100" math="0" shadow="0">
      <root>
        <mxCell id="0" />
        <mxCell id="1" parent="0" />
        <mxCell id="2" value="Start" style="ellipse;aspect=fixed;strokeWidth=2;whiteSpace=wrap;" vertex="1" parent="1">
          <mxGeometry x="40" y="-121" width="50" height="50" as="geometry" />
        </mxCell>
        <mxCell id="3" value="sensor part" style="rounded=1;arcSize=40;strokeWidth=2" vertex="1" parent="1">
          <mxGeometry x="140" y="-416" width="113" height="49" as="geometry" />
        </mxCell>
        <mxCell id="4" value="Sensor Type1" style="rounded=1;arcSize=40;strokeWidth=2" vertex="1" parent="1">
          <mxGeometry x="356" y="-940" width="143" height="49" as="geometry" />
        </mxCell>
        <mxCell id="6" value="Sub-container 1-1" style="rounded=1;arcSize=40;strokeWidth=2" vertex="1" parent="1">
          <mxGeometry x="560" y="-932" width="151" height="49" as="geometry" />
        </mxCell>
        <mxCell id="k0Hxsxa0OaygLSONsgg9-133" value="" style="edgeStyle=orthogonalEdgeStyle;rounded=0;orthogonalLoop=1;jettySize=auto;html=1;" edge="1" parent="1" source="7">
          <mxGeometry relative="1" as="geometry">
            <mxPoint x="1040" y="-808" as="targetPoint" />
          </mxGeometry>
        </mxCell>
        <mxCell id="7" value="Sub-container 1-n" style="rounded=1;arcSize=40;strokeWidth=2" vertex="1" parent="1">
          <mxGeometry x="560" y="-833" width="152" height="49" as="geometry" />
        </mxCell>
        <mxCell id="17" value="imaging part" style="rounded=1;arcSize=40;strokeWidth=2" vertex="1" parent="1">
          <mxGeometry x="140" y="175" width="113" height="49" as="geometry" />
        </mxCell>
        <mxCell id="20" value="imaging data reading" style="rounded=1;arcSize=40;strokeWidth=2" vertex="1" parent="1">
          <mxGeometry x="352" y="175" width="152" height="49" as="geometry" />
        </mxCell>
        <mxCell id="k0Hxsxa0OaygLSONsgg9-145" value="" style="edgeStyle=orthogonalEdgeStyle;rounded=0;orthogonalLoop=1;jettySize=auto;html=1;" edge="1" parent="1" source="23" target="k0Hxsxa0OaygLSONsgg9-144">
          <mxGeometry relative="1" as="geometry" />
        </mxCell>
        <mxCell id="23" value="Imaging-containerÂ " style="rounded=1;arcSize=40;strokeWidth=2" vertex="1" parent="1">
          <mxGeometry x="554" y="175" width="160" height="49" as="geometry" />
        </mxCell>
        <mxCell id="24" value="" style="curved=1;startArrow=none;endArrow=block;exitX=0.59;exitY=0;entryX=0;entryY=0.5;" edge="1" parent="1" source="2" target="3">
          <mxGeometry relative="1" as="geometry">
            <Array as="points">
              <mxPoint x="115" y="-391" />
            </Array>
          </mxGeometry>
        </mxCell>
        <mxCell id="25" value="" style="curved=1;startArrow=none;endArrow=block;exitX=0.59;exitY=0.01;entryX=0;entryY=0.5;" edge="1" parent="1" source="3" target="4">
          <mxGeometry relative="1" as="geometry">
            <Array as="points">
              <mxPoint x="278" y="-588" />
            </Array>
          </mxGeometry>
        </mxCell>
        <mxCell id="26" value="" style="curved=1;startArrow=none;endArrow=block;exitX=1;exitY=0.5;entryX=0;entryY=0.5;entryDx=0;entryDy=0;" edge="1" parent="1" source="3" target="k0Hxsxa0OaygLSONsgg9-62">
          <mxGeometry relative="1" as="geometry">
            <Array as="points" />
            <mxPoint x="303" y="-391.5" as="targetPoint" />
          </mxGeometry>
        </mxCell>
        <mxCell id="27" value="" style="curved=1;startArrow=none;endArrow=block;exitX=1;exitY=0.5;entryX=0;entryY=0.49;exitDx=0;exitDy=0;" edge="1" parent="1" source="4" target="6">
          <mxGeometry relative="1" as="geometry">
            <Array as="points">
              <mxPoint x="535" y="-908" />
            </Array>
          </mxGeometry>
        </mxCell>
        <mxCell id="28" value="" style="curved=1;startArrow=none;endArrow=block;entryX=0;entryY=0.48;" edge="1" parent="1" target="7">
          <mxGeometry relative="1" as="geometry">
            <Array as="points">
              <mxPoint x="535" y="-809" />
            </Array>
            <mxPoint x="456" y="-810" as="sourcePoint" />
          </mxGeometry>
        </mxCell>
        <mxCell id="38" value="" style="curved=1;startArrow=none;endArrow=block;exitX=0.59;exitY=1;entryX=0;entryY=0.5;" edge="1" parent="1" source="2" target="17">
          <mxGeometry relative="1" as="geometry">
            <Array as="points">
              <mxPoint x="115" y="200" />
            </Array>
          </mxGeometry>
        </mxCell>
        <mxCell id="39" value="" style="curved=1;startArrow=none;endArrow=block;exitX=1;exitY=0.5;" edge="1" parent="1" source="17">
          <mxGeometry relative="1" as="geometry">
            <Array as="points" />
            <mxPoint x="350" y="200" as="targetPoint" />
          </mxGeometry>
        </mxCell>
        <mxCell id="44" value="" style="curved=1;startArrow=none;endArrow=block;exitX=1;exitY=0.49;entryX=0;entryY=0.49;" edge="1" parent="1" source="20" target="23">
          <mxGeometry relative="1" as="geometry">
            <Array as="points" />
          </mxGeometry>
        </mxCell>
        <mxCell id="k0Hxsxa0OaygLSONsgg9-44" value="" style="endArrow=none;dashed=1;html=1;dashPattern=1 3;strokeWidth=2;rounded=0;exitX=0.5;exitY=0;exitDx=0;exitDy=0;" edge="1" parent="1" source="7">
          <mxGeometry width="50" height="50" relative="1" as="geometry">
            <mxPoint x="610.5" y="-860" as="sourcePoint" />
            <mxPoint x="636" y="-880" as="targetPoint" />
          </mxGeometry>
        </mxCell>
        <mxCell id="k0Hxsxa0OaygLSONsgg9-45" value="Sensor Type1" style="rounded=1;arcSize=40;strokeWidth=2" vertex="1" parent="1">
          <mxGeometry x="352" y="-833" width="143" height="49" as="geometry" />
        </mxCell>
        <mxCell id="k0Hxsxa0OaygLSONsgg9-48" value="" style="curved=1;startArrow=none;endArrow=block;exitX=0.59;exitY=0.01;entryX=0;entryY=0.25;entryDx=0;entryDy=0;" edge="1" parent="1" target="k0Hxsxa0OaygLSONsgg9-45">
          <mxGeometry relative="1" as="geometry">
            <Array as="points">
              <mxPoint x="288" y="-578" />
            </Array>
            <mxPoint x="217" y="-406" as="sourcePoint" />
            <mxPoint x="332" y="-430" as="targetPoint" />
          </mxGeometry>
        </mxCell>
        <mxCell id="k0Hxsxa0OaygLSONsgg9-49" value="" style="endArrow=none;dashed=1;html=1;dashPattern=1 3;strokeWidth=2;rounded=0;exitX=0.5;exitY=0;exitDx=0;exitDy=0;" edge="1" parent="1" source="k0Hxsxa0OaygLSONsgg9-45">
          <mxGeometry width="50" height="50" relative="1" as="geometry">
            <mxPoint x="422.78999999999996" y="-844" as="sourcePoint" />
            <mxPoint x="422.78999999999996" y="-891" as="targetPoint" />
          </mxGeometry>
        </mxCell>
        <mxCell id="k0Hxsxa0OaygLSONsgg9-52" value="" style="endArrow=none;dashed=1;html=1;dashPattern=1 3;strokeWidth=2;rounded=0;" edge="1" parent="1">
          <mxGeometry width="50" height="50" relative="1" as="geometry">
            <mxPoint x="536" y="-810" as="sourcePoint" />
            <mxPoint x="536" y="-900" as="targetPoint" />
          </mxGeometry>
        </mxCell>
        <mxCell id="k0Hxsxa0OaygLSONsgg9-62" value="Sensor Type2" style="rounded=1;arcSize=40;strokeWidth=2" vertex="1" parent="1">
          <mxGeometry x="356" y="-730" width="143" height="49" as="geometry" />
        </mxCell>
        <mxCell id="k0Hxsxa0OaygLSONsgg9-136" value="" style="edgeStyle=orthogonalEdgeStyle;rounded=0;orthogonalLoop=1;jettySize=auto;html=1;" edge="1" parent="1" source="k0Hxsxa0OaygLSONsgg9-63">
          <mxGeometry relative="1" as="geometry">
            <mxPoint x="1040" y="-697.5000000000002" as="targetPoint" />
          </mxGeometry>
        </mxCell>
        <mxCell id="k0Hxsxa0OaygLSONsgg9-63" value="Sub-container 2-1" style="rounded=1;arcSize=50;strokeWidth=2" vertex="1" parent="1">
          <mxGeometry x="560" y="-722" width="151" height="49" as="geometry" />
        </mxCell>
        <mxCell id="k0Hxsxa0OaygLSONsgg9-138" value="" style="edgeStyle=orthogonalEdgeStyle;rounded=0;orthogonalLoop=1;jettySize=auto;html=1;" edge="1" parent="1" source="k0Hxsxa0OaygLSONsgg9-64">
          <mxGeometry relative="1" as="geometry">
            <mxPoint x="1040" y="-598.5" as="targetPoint" />
          </mxGeometry>
        </mxCell>
        <mxCell id="k0Hxsxa0OaygLSONsgg9-64" value="Sub-container 2-n" style="rounded=1;arcSize=40;strokeWidth=2" vertex="1" parent="1">
          <mxGeometry x="560" y="-623" width="152" height="49" as="geometry" />
        </mxCell>
        <mxCell id="k0Hxsxa0OaygLSONsgg9-65" value="" style="curved=1;startArrow=none;endArrow=block;entryX=0;entryY=0.49;" edge="1" parent="1" target="k0Hxsxa0OaygLSONsgg9-63">
          <mxGeometry relative="1" as="geometry">
            <Array as="points" />
            <mxPoint x="502" y="-698" as="sourcePoint" />
          </mxGeometry>
        </mxCell>
        <mxCell id="k0Hxsxa0OaygLSONsgg9-66" value="" style="curved=1;startArrow=none;endArrow=block;entryX=0;entryY=0.48;" edge="1" parent="1" target="k0Hxsxa0OaygLSONsgg9-64">
          <mxGeometry relative="1" as="geometry">
            <Array as="points">
              <mxPoint x="535" y="-599" />
            </Array>
            <mxPoint x="456" y="-600" as="sourcePoint" />
          </mxGeometry>
        </mxCell>
        <mxCell id="k0Hxsxa0OaygLSONsgg9-67" value="" style="endArrow=none;dashed=1;html=1;dashPattern=1 3;strokeWidth=2;rounded=0;exitX=0.5;exitY=0;exitDx=0;exitDy=0;" edge="1" parent="1" source="k0Hxsxa0OaygLSONsgg9-64">
          <mxGeometry width="50" height="50" relative="1" as="geometry">
            <mxPoint x="610.5" y="-650" as="sourcePoint" />
            <mxPoint x="636" y="-670" as="targetPoint" />
          </mxGeometry>
        </mxCell>
        <mxCell id="k0Hxsxa0OaygLSONsgg9-68" value="Sensor Type2" style="rounded=1;arcSize=40;strokeWidth=2" vertex="1" parent="1">
          <mxGeometry x="352" y="-623" width="143" height="49" as="geometry" />
        </mxCell>
        <mxCell id="k0Hxsxa0OaygLSONsgg9-69" value="" style="endArrow=none;dashed=1;html=1;dashPattern=1 3;strokeWidth=2;rounded=0;exitX=0.5;exitY=0;exitDx=0;exitDy=0;" edge="1" parent="1" source="k0Hxsxa0OaygLSONsgg9-68">
          <mxGeometry width="50" height="50" relative="1" as="geometry">
            <mxPoint x="422.78999999999996" y="-634" as="sourcePoint" />
            <mxPoint x="422.78999999999996" y="-681" as="targetPoint" />
          </mxGeometry>
        </mxCell>
        <mxCell id="k0Hxsxa0OaygLSONsgg9-70" value="" style="endArrow=none;dashed=1;html=1;dashPattern=1 3;strokeWidth=2;rounded=0;" edge="1" parent="1">
          <mxGeometry width="50" height="50" relative="1" as="geometry">
            <mxPoint x="536" y="-600" as="sourcePoint" />
            <mxPoint x="536" y="-690" as="targetPoint" />
          </mxGeometry>
        </mxCell>
        <mxCell id="k0Hxsxa0OaygLSONsgg9-71" value="" style="curved=1;startArrow=none;endArrow=block;entryX=0;entryY=0.75;entryDx=0;entryDy=0;" edge="1" parent="1" target="k0Hxsxa0OaygLSONsgg9-68">
          <mxGeometry relative="1" as="geometry">
            <Array as="points" />
            <mxPoint x="250" y="-390" as="sourcePoint" />
            <mxPoint x="460" y="-515" as="targetPoint" />
          </mxGeometry>
        </mxCell>
        <mxCell id="k0Hxsxa0OaygLSONsgg9-73" value="" style="endArrow=none;dashed=1;html=1;dashPattern=1 3;strokeWidth=2;rounded=0;entryX=0.5;entryY=1;entryDx=0;entryDy=0;" edge="1" parent="1" target="k0Hxsxa0OaygLSONsgg9-68">
          <mxGeometry width="50" height="50" relative="1" as="geometry">
            <mxPoint x="420" y="-210" as="sourcePoint" />
            <mxPoint x="430" y="-560" as="targetPoint" />
          </mxGeometry>
        </mxCell>
        <mxCell id="k0Hxsxa0OaygLSONsgg9-74" value="Sensor Type_n" style="rounded=1;arcSize=40;strokeWidth=2" vertex="1" parent="1">
          <mxGeometry x="355" y="-210" width="143" height="49" as="geometry" />
        </mxCell>
        <mxCell id="k0Hxsxa0OaygLSONsgg9-141" value="" style="edgeStyle=orthogonalEdgeStyle;rounded=0;orthogonalLoop=1;jettySize=auto;html=1;" edge="1" parent="1" source="k0Hxsxa0OaygLSONsgg9-75" target="k0Hxsxa0OaygLSONsgg9-140">
          <mxGeometry relative="1" as="geometry" />
        </mxCell>
        <mxCell id="k0Hxsxa0OaygLSONsgg9-75" value="Sub-container n-1" style="rounded=1;arcSize=50;strokeWidth=2" vertex="1" parent="1">
          <mxGeometry x="559" y="-202" width="151" height="49" as="geometry" />
        </mxCell>
        <mxCell id="k0Hxsxa0OaygLSONsgg9-143" value="" style="edgeStyle=orthogonalEdgeStyle;rounded=0;orthogonalLoop=1;jettySize=auto;html=1;" edge="1" parent="1" source="k0Hxsxa0OaygLSONsgg9-76">
          <mxGeometry relative="1" as="geometry">
            <mxPoint x="1040" y="-177.50000000000023" as="targetPoint" />
          </mxGeometry>
        </mxCell>
        <mxCell id="k0Hxsxa0OaygLSONsgg9-76" value="Sub-container n-n" style="rounded=1;arcSize=40;strokeWidth=2" vertex="1" parent="1">
          <mxGeometry x="559" y="-103" width="152" height="49" as="geometry" />
        </mxCell>
        <mxCell id="k0Hxsxa0OaygLSONsgg9-77" value="" style="curved=1;startArrow=none;endArrow=block;entryX=0;entryY=0.49;" edge="1" parent="1" target="k0Hxsxa0OaygLSONsgg9-75">
          <mxGeometry relative="1" as="geometry">
            <Array as="points" />
            <mxPoint x="501" y="-178" as="sourcePoint" />
          </mxGeometry>
        </mxCell>
        <mxCell id="k0Hxsxa0OaygLSONsgg9-78" value="" style="curved=1;startArrow=none;endArrow=block;entryX=0;entryY=0.48;" edge="1" parent="1" target="k0Hxsxa0OaygLSONsgg9-76">
          <mxGeometry relative="1" as="geometry">
            <Array as="points">
              <mxPoint x="534" y="-79" />
            </Array>
            <mxPoint x="455" y="-80" as="sourcePoint" />
          </mxGeometry>
        </mxCell>
        <mxCell id="k0Hxsxa0OaygLSONsgg9-79" value="" style="endArrow=none;dashed=1;html=1;dashPattern=1 3;strokeWidth=2;rounded=0;exitX=0.5;exitY=0;exitDx=0;exitDy=0;" edge="1" parent="1" source="k0Hxsxa0OaygLSONsgg9-76">
          <mxGeometry width="50" height="50" relative="1" as="geometry">
            <mxPoint x="609.5" y="-130" as="sourcePoint" />
            <mxPoint x="635" y="-150" as="targetPoint" />
          </mxGeometry>
        </mxCell>
        <mxCell id="k0Hxsxa0OaygLSONsgg9-80" value="Sensor Type_n" style="rounded=1;arcSize=40;strokeWidth=2" vertex="1" parent="1">
          <mxGeometry x="351" y="-103" width="143" height="49" as="geometry" />
        </mxCell>
        <mxCell id="k0Hxsxa0OaygLSONsgg9-81" value="" style="endArrow=none;dashed=1;html=1;dashPattern=1 3;strokeWidth=2;rounded=0;exitX=0.5;exitY=0;exitDx=0;exitDy=0;" edge="1" parent="1" source="k0Hxsxa0OaygLSONsgg9-80">
          <mxGeometry width="50" height="50" relative="1" as="geometry">
            <mxPoint x="421.78999999999996" y="-114" as="sourcePoint" />
            <mxPoint x="421.78999999999996" y="-161" as="targetPoint" />
          </mxGeometry>
        </mxCell>
        <mxCell id="k0Hxsxa0OaygLSONsgg9-82" value="" style="endArrow=none;dashed=1;html=1;dashPattern=1 3;strokeWidth=2;rounded=0;" edge="1" parent="1">
          <mxGeometry width="50" height="50" relative="1" as="geometry">
            <mxPoint x="535" y="-80" as="sourcePoint" />
            <mxPoint x="535" y="-170" as="targetPoint" />
          </mxGeometry>
        </mxCell>
        <mxCell id="k0Hxsxa0OaygLSONsgg9-83" value="" style="endArrow=none;dashed=1;html=1;dashPattern=1 3;strokeWidth=2;rounded=0;entryX=0.5;entryY=1;entryDx=0;entryDy=0;" edge="1" parent="1">
          <mxGeometry width="50" height="50" relative="1" as="geometry">
            <mxPoint x="300" y="-310" as="sourcePoint" />
            <mxPoint x="303" y="-480" as="targetPoint" />
          </mxGeometry>
        </mxCell>
        <mxCell id="k0Hxsxa0OaygLSONsgg9-86" value="" style="endArrow=classic;html=1;rounded=0;exitX=0.83;exitY=0.926;exitDx=0;exitDy=0;exitPerimeter=0;entryX=0.356;entryY=0.03;entryDx=0;entryDy=0;entryPerimeter=0;" edge="1" parent="1" source="3" target="k0Hxsxa0OaygLSONsgg9-74">
          <mxGeometry width="50" height="50" relative="1" as="geometry">
            <mxPoint x="234" y="-300" as="sourcePoint" />
            <mxPoint x="284" y="-350" as="targetPoint" />
          </mxGeometry>
        </mxCell>
        <mxCell id="k0Hxsxa0OaygLSONsgg9-134" value="" style="edgeStyle=orthogonalEdgeStyle;rounded=0;orthogonalLoop=1;jettySize=auto;html=1;" edge="1" parent="1" source="6">
          <mxGeometry relative="1" as="geometry">
            <mxPoint x="711" y="-907" as="sourcePoint" />
            <mxPoint x="1040" y="-320" as="targetPoint" />
          </mxGeometry>
        </mxCell>
        <mxCell id="k0Hxsxa0OaygLSONsgg9-139" value="Stored in sensor data file" style="rounded=0;whiteSpace=wrap;html=1;" vertex="1" parent="1">
          <mxGeometry x="980" y="-320" width="120" height="60" as="geometry" />
        </mxCell>
        <mxCell id="k0Hxsxa0OaygLSONsgg9-140" value="" style="shape=waypoint;sketch=0;size=6;pointerEvents=1;points=[];fillColor=default;resizable=0;rotatable=0;perimeter=centerPerimeter;snapToPoint=1;rounded=1;arcSize=50;strokeWidth=2;" vertex="1" parent="1">
          <mxGeometry x="1030" y="-270" width="20" height="20" as="geometry" />
        </mxCell>
        <mxCell id="k0Hxsxa0OaygLSONsgg9-147" value="" style="edgeStyle=orthogonalEdgeStyle;rounded=0;orthogonalLoop=1;jettySize=auto;html=1;" edge="1" parent="1" source="k0Hxsxa0OaygLSONsgg9-144" target="k0Hxsxa0OaygLSONsgg9-146">
          <mxGeometry relative="1" as="geometry" />
        </mxCell>
        <mxCell id="k0Hxsxa0OaygLSONsgg9-144" value="" style="shape=waypoint;sketch=0;size=6;pointerEvents=1;points=[];fillColor=default;resizable=0;rotatable=0;perimeter=centerPerimeter;snapToPoint=1;rounded=1;arcSize=40;strokeWidth=2;" vertex="1" parent="1">
          <mxGeometry x="1030" y="189.5" width="20" height="20" as="geometry" />
        </mxCell>
        <mxCell id="k0Hxsxa0OaygLSONsgg9-146" value="" style="shape=waypoint;sketch=0;size=6;pointerEvents=1;points=[];fillColor=default;resizable=0;rotatable=0;perimeter=centerPerimeter;snapToPoint=1;rounded=1;arcSize=40;strokeWidth=2;" vertex="1" parent="1">
          <mxGeometry x="1030" y="130" width="20" height="20" as="geometry" />
        </mxCell>
        <mxCell id="k0Hxsxa0OaygLSONsgg9-148" value="Stored in imaging data file" style="rounded=0;whiteSpace=wrap;html=1;" vertex="1" parent="1">
          <mxGeometry x="980" y="80" width="120" height="60" as="geometry" />
        </mxCell>
        <mxCell id="k0Hxsxa0OaygLSONsgg9-149" style="edgeStyle=orthogonalEdgeStyle;rounded=0;orthogonalLoop=1;jettySize=auto;html=1;exitX=0.5;exitY=0;exitDx=0;exitDy=0;entryX=0.75;entryY=0;entryDx=0;entryDy=0;" edge="1" parent="1" source="k0Hxsxa0OaygLSONsgg9-64" target="k0Hxsxa0OaygLSONsgg9-64">
          <mxGeometry relative="1" as="geometry" />
        </mxCell>
      </root>
    </mxGraphModel>
  </diagram>
</mxfile>
